<svg width="70" height="70" viewBox="0 0 70 70" fill="none" xmlns="http://www.w3.org/2000/svg">
<circle cx="35" cy="35" r="33.5" stroke="#F2B705" stroke-width="3"/>
<path d="M45.5036 15.2974C43.5822 15.0936 41.6512 14.9944 39.7191 15.0002C33.3137 15.0002 29.333 19.08 29.333 25.6473V30.1061H23.9523C23.6998 30.1061 23.4575 30.2064 23.2789 30.385C23.1003 30.5636 23 30.8059 23 31.0584V38.3914C23 38.6439 23.1003 38.8862 23.2789 39.0648C23.4575 39.2434 23.6998 39.3437 23.9523 39.3437H29.333V54.0477C29.333 54.3002 29.4333 54.5425 29.6119 54.7211C29.7905 54.8997 30.0327 55 30.2853 55H37.8621C38.1146 55 38.3569 54.8997 38.5355 54.7211C38.7141 54.5425 38.8144 54.3002 38.8144 54.0477V39.3437H44.1779C44.4091 39.3438 44.6325 39.2598 44.8063 39.1074C44.9801 38.9549 45.0926 38.7444 45.1226 38.5152L46.0692 31.1822C46.0869 31.0478 46.0756 30.9112 46.0362 30.7815C45.9967 30.6518 45.9301 30.532 45.8407 30.4302C45.7512 30.3283 45.6411 30.2467 45.5176 30.1908C45.3941 30.1349 45.2601 30.106 45.1245 30.1061H38.8144V26.3749C38.8144 24.5274 39.1858 23.756 41.4961 23.756H45.3797C45.6323 23.756 45.8746 23.6556 46.0531 23.477C46.2317 23.2984 46.3321 23.0562 46.3321 22.8036V16.2421C46.3322 16.0109 46.2482 15.7875 46.0957 15.6137C45.9433 15.4399 45.7328 15.3274 45.5036 15.2974V15.2974ZM44.4274 21.8494L41.4942 21.8513C37.3859 21.8513 36.9097 24.434 36.9097 26.3749V31.0603C36.9097 31.3126 37.0098 31.5545 37.188 31.7331C37.3662 31.9116 37.6079 32.0122 37.8602 32.0127H44.0427L43.3399 37.4409H37.8621C37.6095 37.4409 37.3673 37.5413 37.1887 37.7199C37.0101 37.8985 36.9097 38.1407 36.9097 38.3933V53.0934H31.2377V38.3933C31.2377 38.1407 31.1373 37.8985 30.9587 37.7199C30.7801 37.5413 30.5379 37.4409 30.2853 37.4409H24.9066V32.0127H30.2853C30.5379 32.0127 30.7801 31.9123 30.9587 31.7337C31.1373 31.5551 31.2377 31.3129 31.2377 31.0603V25.6473C31.2377 20.1733 34.4089 16.9049 39.7191 16.9049C41.6409 16.9049 43.376 17.0097 44.4274 17.1011V21.8494V21.8494Z" fill="#F2B705"/>
</svg>
