<svg width="70" height="70" viewBox="0 0 70 70" fill="none" xmlns="http://www.w3.org/2000/svg">
<path fill-rule="evenodd" clip-rule="evenodd" d="M26.7545 15.12C28.8873 15.0218 29.5673 15 35 15C40.4327 15 41.1127 15.0236 43.2436 15.12C45.3745 15.2164 46.8291 15.5564 48.1018 16.0491C49.4345 16.5527 50.6436 17.34 51.6436 18.3582C52.6618 19.3564 53.4473 20.5636 53.9491 21.8982C54.4436 23.1709 54.7818 24.6255 54.88 26.7527C54.9782 28.8891 55 29.5691 55 35C55 40.4327 54.9764 41.1127 54.88 43.2455C54.7836 45.3727 54.4436 46.8273 53.9491 48.1C53.4473 49.4347 52.6605 50.644 51.6436 51.6436C50.6436 52.6618 49.4345 53.4473 48.1018 53.9491C46.8291 54.4436 45.3745 54.7818 43.2473 54.88C41.1127 54.9782 40.4327 55 35 55C29.5673 55 28.8873 54.9764 26.7545 54.88C24.6273 54.7836 23.1727 54.4436 21.9 53.9491C20.5653 53.4472 19.356 52.6605 18.3564 51.6436C17.3389 50.6449 16.5515 49.4362 16.0491 48.1018C15.5564 46.8291 15.2182 45.3745 15.12 43.2473C15.0218 41.1109 15 40.4309 15 35C15 29.5673 15.0236 28.8873 15.12 26.7564C15.2164 24.6255 15.5564 23.1709 16.0491 21.8982C16.5522 20.5638 17.3402 19.3551 18.3582 18.3564C19.3564 17.3391 20.5645 16.5517 21.8982 16.0491C23.1709 15.5564 24.6255 15.2182 26.7527 15.12H26.7545ZM43.0818 18.72C40.9727 18.6236 40.34 18.6036 35 18.6036C29.66 18.6036 29.0273 18.6236 26.9182 18.72C24.9673 18.8091 23.9091 19.1345 23.2036 19.4091C22.2709 19.7727 21.6036 20.2036 20.9036 20.9036C20.2401 21.5492 19.7294 22.3351 19.4091 23.2036C19.1345 23.9091 18.8091 24.9673 18.72 26.9182C18.6236 29.0273 18.6036 29.66 18.6036 35C18.6036 40.34 18.6236 40.9727 18.72 43.0818C18.8091 45.0327 19.1345 46.0909 19.4091 46.7964C19.7291 47.6636 20.24 48.4509 20.9036 49.0964C21.5491 49.76 22.3364 50.2709 23.2036 50.5909C23.9091 50.8655 24.9673 51.1909 26.9182 51.28C29.0273 51.3764 29.6582 51.3964 35 51.3964C40.3418 51.3964 40.9727 51.3764 43.0818 51.28C45.0327 51.1909 46.0909 50.8655 46.7964 50.5909C47.7291 50.2273 48.3964 49.7964 49.0964 49.0964C49.76 48.4509 50.2709 47.6636 50.5909 46.7964C50.8655 46.0909 51.1909 45.0327 51.28 43.0818C51.3764 40.9727 51.3964 40.34 51.3964 35C51.3964 29.66 51.3764 29.0273 51.28 26.9182C51.1909 24.9673 50.8655 23.9091 50.5909 23.2036C50.2273 22.2709 49.7964 21.6036 49.0964 20.9036C48.4508 20.2401 47.6649 19.7295 46.7964 19.4091C46.0909 19.1345 45.0327 18.8091 43.0818 18.72ZM32.4455 41.1655C33.8721 41.7593 35.4607 41.8395 36.9399 41.3922C38.4191 40.945 39.6971 39.998 40.5557 38.7132C41.4142 37.4283 41.8001 35.8852 41.6474 34.3475C41.4946 32.8097 40.8127 31.3727 39.7182 30.2818C39.0204 29.5845 38.1767 29.0506 37.2479 28.7184C36.319 28.3863 35.3281 28.2643 34.3464 28.3611C33.3647 28.4579 32.4166 28.7712 31.5706 29.2784C30.7245 29.7856 30.0014 30.4741 29.4533 31.2943C28.9052 32.1145 28.5458 33.046 28.4009 34.0217C28.2561 34.9975 28.3294 35.9933 28.6155 36.9373C28.9017 37.8813 29.3936 38.7502 30.0559 39.4813C30.7181 40.2124 31.5342 40.7876 32.4455 41.1655ZM27.7309 27.7309C28.6855 26.7763 29.8188 26.0191 31.066 25.5025C32.3132 24.9859 33.65 24.72 35 24.72C36.35 24.72 37.6868 24.9859 38.934 25.5025C40.1812 26.0191 41.3145 26.7763 42.2691 27.7309C43.2237 28.6855 43.9809 29.8188 44.4975 31.066C45.0141 32.3132 45.28 33.65 45.28 35C45.28 36.35 45.0141 37.6868 44.4975 38.934C43.9809 40.1812 43.2237 41.3145 42.2691 42.2691C40.3412 44.197 37.7264 45.28 35 45.28C32.2736 45.28 29.6588 44.197 27.7309 42.2691C25.803 40.3412 24.72 37.7264 24.72 35C24.72 32.2736 25.803 29.6588 27.7309 27.7309ZM47.56 26.2509C47.7966 26.0278 47.9859 25.7594 48.1169 25.4618C48.2479 25.1641 48.3178 24.8432 48.3226 24.5181C48.3273 24.1929 48.2668 23.8701 48.1445 23.5687C48.0223 23.2674 47.8408 22.9937 47.6108 22.7637C47.3809 22.5338 47.1071 22.3523 46.8058 22.23C46.5045 22.1078 46.1816 22.0472 45.8565 22.052C45.5313 22.0567 45.2104 22.1266 44.9128 22.2576C44.6151 22.3886 44.3468 22.578 44.1236 22.8145C43.6897 23.2746 43.4521 23.8857 43.4613 24.5181C43.4705 25.1504 43.7258 25.7543 44.173 26.2015C44.6202 26.6487 45.2241 26.9041 45.8565 26.9133C46.4889 26.9225 47.0999 26.6849 47.56 26.2509Z" fill="#F2B705"/>
<circle cx="35" cy="35" r="33.5" stroke="#F2B705" stroke-width="3"/>
</svg>
