<svg width="71" height="71" viewBox="0 0 71 71" fill="none" xmlns="http://www.w3.org/2000/svg">
<circle cx="35.4062" cy="35.418" r="33.5" stroke="#F2B705" stroke-width="3"/>
<path fill-rule="evenodd" clip-rule="evenodd" d="M44.5289 39.388C44.0322 39.1397 41.5972 37.943 41.1439 37.7763C40.6905 37.6113 40.3605 37.5297 40.0289 38.0263C39.6989 38.5197 38.7505 39.6363 38.4622 39.9663C38.1722 40.298 37.8839 40.338 37.3889 40.0913C36.8939 39.8413 35.2972 39.3197 33.4055 37.633C31.9339 36.3197 30.9389 34.698 30.6505 34.2013C30.3622 33.7063 30.6189 33.438 30.8672 33.1913C31.0905 32.9697 31.3622 32.613 31.6105 32.3247C31.8589 32.0347 31.9405 31.828 32.1055 31.4963C32.2722 31.1663 32.1889 30.878 32.0639 30.6297C31.9405 30.3813 30.9505 27.943 30.5372 26.9514C30.1355 25.9864 29.7272 26.118 29.4239 26.1014C29.1339 26.088 28.8039 26.0847 28.4739 26.0847C28.1439 26.0847 27.6072 26.208 27.1539 26.7047C26.6989 27.1997 25.4206 28.398 25.4206 30.8363C25.4206 33.273 27.1939 35.628 27.4422 35.9597C27.6906 36.2897 30.9339 41.293 35.9022 43.438C37.0855 43.948 38.0072 44.253 38.7255 44.4797C39.9122 44.858 40.9922 44.8047 41.8455 44.6763C42.7955 44.5347 44.7755 43.478 45.1889 42.3213C45.6005 41.1647 45.6005 40.173 45.4772 39.9663C45.3539 39.7597 45.0239 39.6363 44.5272 39.388H44.5289ZM35.4922 51.7263H35.4855C32.5346 51.7268 29.6378 50.9336 27.0989 49.4296L26.4989 49.073L20.2622 50.7096L21.9272 44.6297L21.5356 44.0063C19.8858 41.3802 19.0127 38.341 19.0172 35.2397C19.0206 26.1564 26.4106 18.7664 35.4989 18.7664C39.8989 18.7664 44.0355 20.483 47.1455 23.5964C48.6795 25.124 49.8953 26.9406 50.7226 28.9412C51.55 30.9417 51.9724 33.0865 51.9655 35.2513C51.9622 44.3347 44.5722 51.7263 35.4922 51.7263ZM49.5122 21.2314C47.6758 19.3829 45.4909 17.9173 43.084 16.9194C40.6771 15.9215 38.0961 15.4112 35.4905 15.418C24.5672 15.418 15.6739 24.3097 15.6706 35.238C15.6655 38.7159 16.5779 42.1336 18.3156 45.1463L15.5039 55.418L26.0106 52.6613C28.917 54.2448 32.174 55.0746 35.4839 55.0746H35.4922C46.4155 55.0746 55.3088 46.183 55.3122 35.253C55.3202 32.6485 54.8118 30.0682 53.8162 27.6614C52.8207 25.2546 51.3578 23.0691 49.5122 21.2314Z" fill="#F2B705"/>
</svg>
